<?xml version="1.0" encoding="UTF-8"?>
<svg id="Layer_1" xmlns="http://www.w3.org/2000/svg" version="1.1" viewBox="0 0 2048 2048">
  <!-- Generator: Adobe Illustrator 29.1.0, SVG Export Plug-In . SVG Version: 2.1.0 Build 142)  -->
  <defs>
    <style>
      .st0 {
        fill: #f98149;
      }

      .st1 {
        fill: #fff;
      }

      .st2 {
        fill: #fcb601;
      }

      .st3 {
        fill: #138694;
      }
    </style>
  </defs>
  <g>
    <path class="st0" d="M1052.21,1716.59c-77.9,0-154.6-12.37-227.95-36.75-70.93-23.58-137.64-58-198.29-102.3-59.91-43.76-112.63-96.22-156.69-155.91-44.59-60.41-79.33-126.93-103.27-197.7-3.9-11.54-2.07-23.83,5.03-33.72,7.09-9.88,18.59-15.78,30.76-15.78.89,0,1.79.03,2.67.09,5.98.41,12.06.62,18.08.62h.13c16.05,0,30.39,10.15,35.69,25.27,21.27,60.63,51.72,117.56,90.51,169.21,38.37,51.09,84.09,95.95,135.89,133.34,107.57,77.65,234.63,118.69,367.45,118.69,346.9,0,629.12-282.22,629.12-629.12,0-116.95-32.47-231.17-93.89-330.31-59.75-96.43-144.38-175.12-244.75-227.57-12.21-6.38-19.96-18.95-20.22-32.81-.13-6.67-.47-13.43-1.02-20.1-.87-10.56,2.72-21.07,9.86-28.82,7.12-7.74,17.16-12.17,27.53-12.17,5.8,0,11.41,1.34,16.67,3.98,118.46,59.35,218.53,150.05,289.39,262.29,72.85,115.39,111.36,248.7,111.36,385.51,0,399.24-324.81,724.05-724.05,724.05ZM494.64,648.71c-5.97-1.68-12.05-3.16-18.06-4.41-12.38-2.57-22.61-11.09-27.34-22.79-4.69-11.58-3.3-24.66,3.71-34.99,41.19-60.65,91.25-114.63,148.8-160.46,6.77-5.39,14.85-8.24,23.39-8.24,18.89,0,34.97,14.19,37.4,33,.85,6.59,1.92,13.26,3.17,19.8,2.61,13.65-2.39,27.58-13.06,36.36-44.64,36.74-84,79.42-117.01,126.86l-3.6,5.18-31.16,11.45-6.23-1.75Z"/>
    <path class="st1" d="M1358.84,360.76c2.55,0,5.17.58,7.72,1.86,230.89,115.68,389.71,354.58,389.71,629.92,0,388.23-315.82,704.05-704.05,704.05-309.61,0-573.17-200.85-667.26-479.08-3.9-11.52,4.92-23.09,16.84-23.09.43,0,.86.01,1.29.04,6.45.45,12.94.67,19.46.67h.14c7.59,0,14.3,4.73,16.81,11.89,88.72,252.9,329.89,434.62,612.72,434.62,357.9,0,649.12-291.16,649.12-649.11,0-249.86-141.92-467.2-349.38-575.61-5.78-3.02-9.36-8.94-9.49-15.46-.13-7.14-.5-14.26-1.08-21.37-.9-10.85,7.73-19.35,17.46-19.35M625.13,437.82c8.38,0,16.33,6.07,17.56,15.56.9,7,2.03,14,3.37,21.01,1.23,6.43-1.07,12.99-6.12,17.15-45.98,37.84-86.65,81.91-120.72,130.89-7.05,2.59-12.11,4.45-19.16,7.04-6.42-1.81-12.9-3.39-19.41-4.74-12.24-2.54-18.18-16.61-11.16-26.96,40.1-59.04,88.99-111.67,144.72-156.06,3.35-2.67,7.18-3.88,10.93-3.88M1358.84,320.76c-15.95,0-31.34,6.79-42.24,18.62-10.92,11.85-16.41,27.9-15.08,44.02.52,6.25.84,12.58.96,18.83.4,21.17,12.26,40.39,30.95,50.16,97.2,50.79,179.16,126.99,237.01,220.37,29.17,47.08,51.73,97.81,67.05,150.79,15.82,54.69,23.84,111.55,23.84,168.99,0,335.87-273.25,609.11-609.12,609.11-64.95,0-128.91-10.21-190.08-30.34-59.16-19.47-114.9-47.93-165.66-84.57-50.16-36.21-94.44-79.66-131.6-129.14-37.56-50.01-67.04-105.12-87.63-163.82-8.11-23.12-30.03-38.65-54.56-38.65h-.14c-5.57,0-11.18-.19-16.7-.58-1.35-.09-2.71-.14-4.05-.14-18.6,0-36.17,9.02-47.01,24.12-10.74,14.97-13.63,34.33-7.72,51.78,24.6,72.74,60.3,141.09,106.12,203.17,45.27,61.33,99.43,115.23,160.99,160.19,62.33,45.53,130.89,80.9,203.78,105.13,75.39,25.06,154.21,37.77,234.26,37.77,410.27,0,744.05-333.78,744.05-744.05,0-140.6-39.58-277.6-114.45-396.19-72.81-115.32-175.63-208.51-297.34-269.49-7.96-3.99-16.82-6.1-25.63-6.1h0ZM625.13,397.82c-12.92,0-25.65,4.47-35.85,12.59-59.12,47.09-110.56,102.56-152.89,164.87-10.77,15.86-12.9,35.94-5.7,53.73,7.25,17.9,22.88,30.94,41.82,34.87,5.57,1.16,11.19,2.53,16.72,4.08l12.46,3.5,12.15-4.46,19.17-7.04,11.84-4.35,7.2-10.35c31.96-45.94,70.08-87.27,113.3-122.84,16.32-13.43,23.98-34.72,19.99-55.56-1.18-6.15-2.18-12.41-2.98-18.6-1.86-14.38-8.93-27.42-19.91-36.73-10.43-8.84-23.68-13.71-37.32-13.71h0Z"/>
  </g>
  <g>
    <path class="st2" d="M1246.02,1351.08c-41.09,0-74.53-33.43-74.53-74.53v-89.46c0-19.04-15.49-34.53-34.53-34.53h-89.46c-41.09,0-74.53-33.43-74.53-74.53v-26.91c0-41.09,33.43-74.53,74.53-74.53h89.46c19.04,0,34.53-15.49,34.53-34.53v-89.46c0-41.09,33.43-74.53,74.53-74.53h26.91c41.09,0,74.53,33.43,74.53,74.53v89.46c0,19.04,15.49,34.53,34.53,34.53h89.46c41.09,0,74.53,33.43,74.53,74.53v26.91c0,41.09-33.43,74.53-74.53,74.53h-89.46c-19.04,0-34.53,15.49-34.53,34.53v89.46c0,41.09-33.43,74.53-74.53,74.53h-26.91Z"/>
    <path class="st1" d="M1272.93,798.1c30.11,0,54.53,24.41,54.53,54.53v89.46c0,30.11,24.41,54.53,54.53,54.53h89.45c30.11,0,54.53,24.41,54.53,54.53v26.91c0,30.11-24.41,54.53-54.53,54.53h-89.45c-30.11,0-54.53,24.41-54.53,54.53v89.45c0,30.11-24.41,54.53-54.53,54.53h-26.91c-30.11,0-54.53-24.41-54.53-54.53v-89.45c0-30.11-24.41-54.53-54.53-54.53h-89.46c-30.11,0-54.53-24.41-54.53-54.53v-26.91c0-30.11,24.41-54.53,54.53-54.53h89.46c30.11,0,54.53-24.41,54.53-54.53v-89.46c0-30.11,24.41-54.53,54.53-54.53h26.91M1272.93,758.1h-26.91c-52.12,0-94.53,42.4-94.53,94.53v89.46c0,8.01-6.52,14.53-14.53,14.53h-89.46c-52.12,0-94.53,42.4-94.53,94.53v26.91c0,52.12,42.4,94.53,94.53,94.53h89.46c8.01,0,14.53,6.52,14.53,14.53v89.45c0,52.12,42.4,94.53,94.53,94.53h26.91c52.12,0,94.53-42.4,94.53-94.53v-89.45c0-8.01,6.52-14.53,14.53-14.53h89.45c52.12,0,94.53-42.4,94.53-94.53v-26.91c0-52.12-42.4-94.53-94.53-94.53h-89.45c-8.01,0-14.53-6.52-14.53-14.53v-89.46c0-52.12-42.4-94.53-94.53-94.53h0Z"/>
  </g>
  <g>
    <g>
      <path class="st3" d="M833.63,1508.15c-59.18,0-114.57-31.23-144.55-81.5-28-46.95-31.43-104.73-9.17-154.57,1.58-3.54,1.09-7.51-1.28-10.34l-103.97-124.39c-5.14-6.14-12.75-9.67-20.88-9.67-4.64,0-9.3,1.16-13.48,3.36l-.34.18c-36.23,18.99-76.82,29.02-117.42,29.02-47.11,0-93.23-13.09-133.37-37.84-41.41-25.55-74.45-62.45-95.55-106.7-56.69-118.93-11.46-263.26,102.97-328.59,38.33-21.88,81.71-33.45,125.47-33.45,26.6,0,52.96,4.17,78.34,12.41,7.13,2.31,14.56,3.48,22.08,3.48,18.1,0,35.63-6.71,49.37-18.89l92.14-81.72c21.14-18.75,29.95-48.25,22.45-75.17-19.76-70.92-13.91-147.14,16.47-214.62,30.91-68.67,85.66-124.19,154.17-156.36,41.88-19.66,86.63-29.63,133.03-29.63,113.65,0,219.08,60.66,275.16,158.3,21.9,38.13,35.45,79.37,40.27,122.58,4.65,41.61,1.04,83.19-10.72,123.57-11.77,40.43-31.08,77.48-57.38,110.14-27.24,33.82-60.7,61.27-99.46,81.59-45.17,23.68-95.84,36.2-146.51,36.2h0c-70.18,0-139.3-23.72-194.64-66.79-13.03-10.14-28.67-15.49-45.24-15.49-18.27,0-35.87,6.68-49.55,18.82l-38.99,34.58c-26.17,23.21-33.07,61.04-16.78,92l.36.68c20.51,39.14,30.48,83.01,28.82,126.9-1.6,42.54-14.01,84.35-35.88,120.91-6.22,10.4-5.4,23.38,2.04,32.29l100.44,120.17c1.99,2.38,4.91,3.74,8.01,3.74,1.7,0,3.32-.4,4.84-1.2l.23-.12c23.96-12.56,50.85-19.2,77.74-19.2,62.64,0,119.6,34.44,148.66,89.88,21.4,40.83,25.01,89.23,9.92,132.8-15.31,44.18-47.34,79.08-90.19,98.26-21.36,9.56-44.12,14.41-67.65,14.41Z"/>
      <path class="st1" d="M990.11,113.14c103.26,0,203.68,54,257.82,148.26,84.21,146.62,29.14,332.44-119.22,410.21-43.89,23.01-90.9,33.91-137.23,33.91-65.8,0-130.22-22-182.36-62.57-16.96-13.2-37.25-19.71-57.52-19.71-22.5,0-44.98,8.03-62.82,23.86l-38.99,34.58c-32.99,29.26-41.74,77.26-21.21,116.28l.36.68c39.14,74.66,33.81,160.83-6.52,228.23-10.5,17.55-9.25,39.69,3.86,55.38l100.44,120.17c5.94,7.11,14.57,10.92,23.36,10.92,4.8,0,9.65-1.14,14.13-3.49l.22-.12c21.89-11.48,45.34-16.92,68.45-16.91,53.17,0,104.55,28.8,130.95,79.16,39.32,75.02,7.78,168.38-70.73,203.52-19.16,8.58-39.42,12.66-59.48,12.66-50.73,0-100.17-26.13-127.37-71.74-25.87-43.37-26.94-93.96-8.09-136.18,4.66-10.43,3.13-22.56-4.2-31.32l-103.97-124.39c-9.25-11.06-22.59-16.84-36.23-16.84-7.73,0-15.56,1.86-22.79,5.67-.12.06-.23.12-.35.18-34.57,18.12-71.6,26.71-108.1,26.71-86.8,0-170.56-48.59-210.86-133.15-52.13-109.37-10.39-242.54,94.83-302.61,36.67-20.94,76.41-30.82,115.55-30.82,24.6,0,48.97,3.91,72.17,11.43,9.26,3,18.78,4.46,28.25,4.46,22.74,0,45.13-8.41,62.64-23.93l92.14-81.72c26.87-23.83,38.09-60.9,28.45-95.5-37.82-135.77,25.7-284.52,159.87-347.51,40.04-18.8,82.51-27.73,124.54-27.73M990.11,73.14c-49.36,0-96.98,10.61-141.53,31.52-37.14,17.44-70.31,41.02-98.58,70.1-27.24,28.02-49.22,60.37-65.32,96.15-32.29,71.74-38.51,152.78-17.5,228.2,5.46,19.6-1,41.13-16.46,54.84l-92.14,81.72c-10.07,8.93-22.89,13.85-36.09,13.85-5.43,0-10.78-.84-15.91-2.51-27.38-8.88-55.81-13.38-84.51-13.38-47.23,0-94.04,12.47-135.39,36.08-123.47,70.49-172.27,226.23-111.11,354.56,22.76,47.74,58.41,87.55,103.1,115.12,43.29,26.71,93.04,40.82,143.87,40.82,21.63,0,43.24-2.59,64.23-7.69,21.59-5.25,42.6-13.19,62.44-23.59l.18-.1.16-.08.04-.02.04-.02c1.34-.7,2.74-1.06,4.16-1.06,1.57,0,3.81.43,5.53,2.49l99.88,119.5c-10.31,25.34-15.04,52.93-13.7,80.18,1.49,30.48,10.63,60.59,26.41,87.05,16.79,28.15,40.94,51.48,69.84,67.49,28.09,15.55,59.86,23.77,91.88,23.77,26.36,0,51.87-5.43,75.82-16.15,24.21-10.84,45.4-26.21,62.97-45.69,16.89-18.73,29.66-40.35,37.95-64.27,8.3-23.95,11.66-48.88,9.97-74.09-1.75-26.12-8.84-51.21-21.07-74.55-16.2-30.91-40.57-56.6-70.48-74.31-29.03-17.19-62.19-26.28-95.89-26.28-27.63,0-55.25,6.25-80.33,18.15l-95.58-114.36c-2.03-2.43-2.12-6.03-.23-9.19,23.59-39.43,36.97-84.53,38.7-130.42,1.79-47.37-8.96-94.72-31.08-136.91l-.02-.03-.02-.03-.36-.68c-11.99-22.79-6.91-50.63,12.35-67.72l38.99-34.58c10.02-8.89,22.91-13.78,36.28-13.78,12.08,0,23.47,3.9,32.96,11.28,29.42,22.89,62.27,40.65,97.66,52.77,35.3,12.1,72.07,18.23,109.27,18.23,26.6,0,53.18-3.18,78.99-9.46,26.56-6.46,52.4-16.22,76.82-29.02,41.2-21.6,76.78-50.79,105.75-86.76,27.96-34.73,48.49-74.12,61-117.1,12.5-42.93,16.33-87.13,11.39-131.38-5.13-45.96-19.54-89.8-42.81-130.32-29.76-51.82-73.16-94.83-125.51-124.39-50.93-28.75-108.67-43.95-167-43.95h0Z"/>
    </g>
    <circle class="st1" cx="927.8" cy="286.81" r="92.26"/>
    <circle class="st1" cx="317.26" cy="837.11" r="60" transform="translate(-499 469.52) rotate(-45)"/>
    <circle class="st1" cx="841.8" cy="1255.34" r="37.36"/>
  </g>
</svg>